<?xml version="1.0" encoding="UTF-8"?>
<svg xmlns="http://www.w3.org/2000/svg" xmlns:xlink="http://www.w3.org/1999/xlink" width="24px" height="24px" viewBox="0 0 24 24" version="1.1">
<g id="surface1">
<path style=" stroke:none;fill-rule:nonzero;fill:rgb(0%,46.666667%,100%);fill-opacity:1;" d="M 0 11.519531 C 0 6.089844 0 3.375 1.6875 1.6875 C 3.375 0 6.089844 0 11.519531 0 L 12.480469 0 C 17.910156 0 20.625 0 22.3125 1.6875 C 24 3.375 24 6.089844 24 11.519531 L 24 12.480469 C 24 17.910156 24 20.625 22.3125 22.3125 C 20.625 24 17.910156 24 12.480469 24 L 11.519531 24 C 6.089844 24 3.375 24 1.6875 22.3125 C 0 20.625 0 17.910156 0 12.480469 Z M 0 11.519531 "/>
<path style=" stroke:none;fill-rule:nonzero;fill:rgb(100%,100%,100%);fill-opacity:1;" d="M 12.769531 17.289062 C 7.300781 17.289062 4.179688 13.539062 4.050781 7.300781 L 6.789062 7.300781 C 6.878906 11.878906 8.898438 13.820312 10.5 14.21875 L 10.5 7.300781 L 13.082031 7.300781 L 13.082031 11.25 C 14.660156 11.078125 16.320312 9.28125 16.878906 7.300781 L 19.460938 7.300781 C 19.03125 9.738281 17.230469 11.539062 15.949219 12.28125 C 17.230469 12.878906 19.28125 14.449219 20.058594 17.289062 L 17.21875 17.289062 C 16.609375 15.390625 15.089844 13.921875 13.082031 13.71875 L 13.082031 17.289062 Z M 12.769531 17.289062 "/>
</g>
</svg>
