<svg width="54" height="53" viewBox="0 0 54 53" fill="none" xmlns="http://www.w3.org/2000/svg">
<g filter="url(#filter0_d_241_2648)">
<ellipse cx="27" cy="25.5" rx="23" ry="22.5" fill="#FFE3D8"/>
<path d="M49.5 25.5C49.5 37.64 39.4368 47.5 27 47.5C14.5632 47.5 4.5 37.64 4.5 25.5C4.5 13.36 14.5632 3.5 27 3.5C39.4368 3.5 49.5 13.36 49.5 25.5Z" stroke="black"/>
</g>
<path d="M21.964 34.8966C23.6047 22.944 32.4018 16.082 36.9188 16C36.9649 15.9992 37.0003 16.0421 37 16.0913C36.9703 21.8054 34.168 22.0818 32.694 22.2272C32.3534 22.2608 32.0837 22.2874 31.9356 22.3725C30.9373 22.6237 30.2473 23.3513 29.9537 23.7225C29.8214 23.8898 30.9656 24.0866 32.9735 23.8987C33.0468 23.8918 33.0914 23.983 33.0444 24.0435C31.3819 26.1891 29.5306 26.622 28.3702 26.8934C27.9928 26.9816 27.6884 27.0528 27.4875 27.1602C26.1083 28.6048 23.7777 31.9328 22.1172 34.9563C22.0709 35.0406 21.9507 34.9933 21.964 34.8966Z" fill="white"/>
<path d="M21.1716 16.674C21.5172 16.674 21.7973 16.9736 21.7973 17.3431V20.4656H24.7174C25.063 20.4656 25.3431 20.7651 25.3431 21.1347C25.3431 21.5042 25.063 21.8038 24.7174 21.8038H21.7973V24.9262C21.7973 25.2958 21.5171 25.5953 21.1716 25.5953C20.826 25.5953 20.5458 25.2958 20.5458 24.9262V21.8038H17.6257C17.2802 21.8038 17 21.5042 17 21.1347C17 20.7651 17.2802 20.4656 17.6257 20.4656H20.5458V17.3431C20.5458 16.9736 20.826 16.674 21.1716 16.674Z" fill="white"/>
<path d="M21.964 34.8966C23.6047 22.944 32.4018 16.082 36.9188 16C36.9649 15.9992 37.0003 16.0421 37 16.0913C36.9703 21.8054 34.168 22.0818 32.694 22.2272C32.3534 22.2608 32.0837 22.2874 31.9356 22.3725C30.9373 22.6237 30.2473 23.3513 29.9537 23.7225C29.8214 23.8898 30.9656 24.0866 32.9735 23.8987C33.0468 23.8918 33.0914 23.983 33.0444 24.0435C31.3819 26.1891 29.5306 26.622 28.3702 26.8934C27.9928 26.9816 27.6884 27.0528 27.4875 27.1602C26.1083 28.6048 23.7777 31.9328 22.1172 34.9563C22.0709 35.0406 21.9507 34.9933 21.964 34.8966Z" stroke="black" stroke-linecap="round"/>
<path d="M21.1716 16.674C21.5172 16.674 21.7973 16.9736 21.7973 17.3431V20.4656H24.7174C25.063 20.4656 25.3431 20.7651 25.3431 21.1347C25.3431 21.5042 25.063 21.8038 24.7174 21.8038H21.7973V24.9262C21.7973 25.2958 21.5171 25.5953 21.1716 25.5953C20.826 25.5953 20.5458 25.2958 20.5458 24.9262V21.8038H17.6257C17.2802 21.8038 17 21.5042 17 21.1347C17 20.7651 17.2802 20.4656 17.6257 20.4656H20.5458V17.3431C20.5458 16.9736 20.826 16.674 21.1716 16.674Z" stroke="black" stroke-linecap="round"/>
<defs>
<filter id="filter0_d_241_2648" x="0" y="0" width="54" height="53" filterUnits="userSpaceOnUse" color-interpolation-filters="sRGB">
<feFlood flood-opacity="0" result="BackgroundImageFix"/>
<feColorMatrix in="SourceAlpha" type="matrix" values="0 0 0 0 0 0 0 0 0 0 0 0 0 0 0 0 0 0 127 0" result="hardAlpha"/>
<feOffset dy="1"/>
<feGaussianBlur stdDeviation="2"/>
<feColorMatrix type="matrix" values="0 0 0 0 0 0 0 0 0 0 0 0 0 0 0 0 0 0 0.25 0"/>
<feBlend mode="normal" in2="BackgroundImageFix" result="effect1_dropShadow_241_2648"/>
<feBlend mode="normal" in="SourceGraphic" in2="effect1_dropShadow_241_2648" result="shape"/>
</filter>
</defs>
</svg>
