<?xml version="1.0" encoding="UTF-8"?>
<!--Generator: Apple Native CoreSVG 326-->
<!DOCTYPE svg
PUBLIC "-//W3C//DTD SVG 1.1//EN"
       "http://www.w3.org/Graphics/SVG/1.1/DTD/svg11.dtd">
<svg version="1.1" xmlns="http://www.w3.org/2000/svg" xmlns:xlink="http://www.w3.org/1999/xlink" viewBox="0 0 20.6049 20.2625">
 <g>
  <rect height="20.2625" opacity="0" width="20.6049" x="0" y="0"/>
  <path d="M0.368616 19.8878C0.884241 20.3873 1.72213 20.3873 2.22164 19.8878L10.1172 11.9762L18.0288 19.8878C18.5122 20.3873 19.3662 20.3873 19.8657 19.8878C20.3652 19.3722 20.3652 18.5343 19.8657 18.0509L11.9541 10.1393L19.8657 2.24377C20.3652 1.74426 20.3813 0.890259 19.8657 0.390747C19.3501-0.0926514 18.5122-0.0926514 18.0288 0.390747L10.1172 8.30237L2.22164 0.390747C1.72213-0.0926514 0.868128-0.108765 0.368616 0.390747C-0.114782 0.906372-0.114782 1.74426 0.368616 2.24377L8.28024 10.1393L0.368616 18.0509C-0.114782 18.5343-0.130896 19.3883 0.368616 19.8878Z" fill="white" fill-opacity="0.85"/>
 </g>
</svg>
