<svg width="24" height="24" viewBox="0 0 24 24" fill="none" xmlns="http://www.w3.org/2000/svg">
<path d="M20.4518 7.82787C20.3534 7.88947 18.011 9.18947 18.011 12.0719C18.1214 15.3591 20.967 16.5119 21.0158 16.5119C20.967 16.5735 20.5862 18.0823 19.4582 19.6639C18.563 21.0263 17.5694 22.3999 16.0606 22.3999C14.6254 22.3999 14.1102 21.4919 12.4542 21.4919C10.6758 21.4919 10.1726 22.3999 8.81104 22.3999C7.30224 22.3999 6.23504 20.9527 5.29104 19.6031C4.06464 17.8367 3.02224 15.0647 2.98544 12.4031C2.96064 10.9927 3.23104 9.60627 3.91744 8.42867C4.88624 6.78467 6.61584 5.66867 8.50464 5.63187C9.95184 5.58307 11.2398 6.62547 12.123 6.62547C12.9694 6.62547 14.5518 5.63187 16.3422 5.63187C17.115 5.63267 19.1758 5.86547 20.4518 7.82787ZM12.0006 5.35027C11.743 4.06227 12.4542 2.77427 13.1166 1.95267C13.963 0.959068 15.2998 0.284668 16.4526 0.284668C16.5262 1.57267 16.0598 2.83587 15.2262 3.75587C14.4782 4.74947 13.1902 5.49747 12.0006 5.35027Z" fill="white"/>
</svg>
